<?xml version="1.0" standalone="no"?><!DOCTYPE svg PUBLIC "-//W3C//DTD SVG 1.1//EN" "http://www.w3.org/Graphics/SVG/1.1/DTD/svg11.dtd"><svg t="1519550934228" class="icon" style="" viewBox="0 0 1025 1024" version="1.1" xmlns="http://www.w3.org/2000/svg" p-id="3436" xmlns:xlink="http://www.w3.org/1999/xlink" width="64.0625" height="64"><defs><style type="text/css"></style></defs><path d="M511.708193 985.459932c-243.434879 0-442.60822-191.797271-442.60822-430.314429 0-114.35468 45.742077-219.079719 122.933815-297.499096 0.370646-0.37679 0.039932-2.822852-0.028669-4.635129-0.083959-2.198282 0.041979-3.884621 0.041979-5.233078L192.047099 75.653863c0-12.294815 7.377094-22.130257 19.671909-24.58963 0 0 0 0 2.459373 0 2.459373 0 2.459373 0 2.459373 0s0 0 2.459373 0c4.917721 0 9.835442 0 14.753164 2.459373l142.618011 88.522054 2.459373 2.459373c41.802166-12.294815 86.062681-19.671909 132.782568-19.671909 243.434879 0 442.60822 191.797271 442.60822 430.314429S755.143072 985.459932 511.708193 985.459932zM511.708193 174.011359c-44.260515 0-88.522054 7.377094-127.864847 22.130257l0 0c-10.377078 5.41021-24.58963 4.917721-34.425072-2.459373L241.225335 129.74982l0 118.029405c0 9.702337 3.040939 21.025485-0.604092 29.732606-0.05017 0.119795-0.313309 0.492489-0.510919 0.699314-0.051194 0.053242-0.114675 0.108532-0.184299 0.176108-74.224519 70.854912-121.646792 167.936647-121.646792 276.759275 0 211.468156 177.043083 381.135169 393.429984 381.135169S905.138177 766.614683 905.138177 555.146528C905.138177 343.677348 728.095093 174.011359 511.708193 174.011359z" p-id="3437"></path><path d="M536.298847 546.300158c-14.137809 0-25.597133-11.459325-25.597133-25.597133l0-76.737133c0-14.136785 11.459325-25.597133 25.597133-25.597133s25.597133 11.460348 25.597133 25.597133l0 76.737133C561.89598 534.840834 550.435631 546.300158 536.298847 546.300158z" p-id="3438"></path><path d="M723.669861 546.300158c-14.137809 0-25.597133-11.459325-25.597133-25.597133l0-76.737133c0-14.136785 11.459325-25.597133 25.597133-25.597133s25.597133 11.460348 25.597133 25.597133l0 76.737133C749.266994 534.840834 737.806646 546.300158 723.669861 546.300158z" p-id="3439"></path></svg>