<?xml version="1.0" standalone="no"?><!DOCTYPE svg PUBLIC "-//W3C//DTD SVG 1.1//EN" "http://www.w3.org/Graphics/SVG/1.1/DTD/svg11.dtd"><svg t="1519552713174" class="icon" style="" viewBox="0 0 1024 1024" version="1.1" xmlns="http://www.w3.org/2000/svg" p-id="6432" xmlns:xlink="http://www.w3.org/1999/xlink" width="64" height="64"><defs><style type="text/css"></style></defs><path d="M726.3 763c79-4.3 141.6-69.7 141.6-149.8 0-82.8-67.2-150-150-150s-150 67.2-150 150c0 80 62.7 145.4 141.6 149.8C605.2 766.8 517 842.3 483 947h53.2c31.6-79.1 101.2-134.2 181.8-134.2S868.1 867.9 899.7 947h53.2c-34-104.7-122.2-180.2-226.6-184zM617.9 613.2c0-55.1 44.9-100 100-100s100 44.9 100 100-44.9 100-100 100-100-44.9-100-100zM701 227h-50v-50h50v50z m110 0h-50v-50h50v50zM67 77v870h336.6v-50H117V324h790v419.1h50V77H67z m840 197H117V127h790v147z" fill="" p-id="6433"></path></svg>