<?xml version="1.0" standalone="no"?><!DOCTYPE svg PUBLIC "-//W3C//DTD SVG 1.1//EN" "http://www.w3.org/Graphics/SVG/1.1/DTD/svg11.dtd"><svg t="1519551665821" class="icon" style="" viewBox="0 0 1024 1024" version="1.1" xmlns="http://www.w3.org/2000/svg" p-id="867" xmlns:xlink="http://www.w3.org/1999/xlink" width="64" height="64"><defs><style type="text/css"></style></defs><path d="M847.396793 77.085656l-658.713456 0.017396C120.611985 79.397305 63.10934 137.115867 63.10934 203.133444l0 466.788286c0 65.719794 57.473993 121.43677 125.504412 121.43677l266.636756 0 0 56.027038-89.627297 0c-27.800159 0-50.424436 21.98778-50.424436 49.018414 0 27.024493 22.624277 49.018414 50.424436 49.018414L656.92574 945.422364c27.795043 0 50.41932-21.99392 50.41932-49.018414 0-27.02961-22.624277-49.018414-50.41932-49.018414l-89.633437 0 0-56.027038 268.859377 0c66.828035 0 123.280768-55.716976 123.280768-121.43677L959.432449 203.133444C959.432449 134.723378 910.443711 79.356372 847.396793 77.085656zM656.92574 875.396497c12.353352 0 22.408359 9.42465 22.408359 21.007453 0 11.583826-10.055007 21.007453-22.408359 21.007453L365.622188 917.411403c-12.359492 0-22.414499-9.42465-22.414499-21.007453 0-11.583826 10.055007-21.007453 22.414499-21.007453L656.92574 875.396497zM483.260445 847.385537l0-56.027038 56.020898 0 0 56.027038L483.260445 847.385537zM931.422512 669.921729c0 50.535977-43.626613 93.426833-95.27083 93.426833l-647.537929 0c-51.935859 0-97.493451-43.766806-97.493451-93.426833L91.1203 203.133444c0-51.341319 45.1145-96.245018 98.036827-98.036827l657.733129-0.011256c47.40159 1.721201 84.533278 44.793182 84.533278 98.048083L931.423535 669.921729zM833.391824 161.117514 189.156104 161.117514c-35.602869 0-56.020898 20.424168-56.020898 56.020898l0 434.168354c0 35.998889 34.026978 70.025866 70.025866 70.025866l630.229728 0c36.775578 0 56.014758-35.229362 56.014758-70.025866L889.405559 217.138412C889.406582 181.541683 868.98753 161.117514 833.391824 161.117514zM861.401762 651.306766c0 14.542204-5.858428 42.015929-28.009937 42.015929L203.161073 693.322695c-20.027126 0-42.015929-21.98778-42.015929-42.015929L161.145144 217.138412c0-20.156062 7.848759-28.010961 28.010961-28.010961l644.234697 0c20.156062 0 28.009937 7.854898 28.009937 28.010961L861.400738 651.306766zM507.168971 291.272853c-5.467525-5.473665-14.332427-5.473665-19.806091 0-5.467525 5.467525-5.467525 14.332427 0 19.799952l140.052756 140.057873c2.736321 2.731204 6.319939 4.102435 9.902534 4.102435s7.166213-1.37123 9.902534-4.102435c5.467525-5.473665 5.467525-14.337543 0-19.806091L507.168971 291.272853zM437.217806 333.369623c-5.421476-5.525853-14.296611-5.579065-19.806091-0.163729-5.508457 5.426593-5.579065 14.291494-0.146333 19.806091l208.91103 212.208123c2.736321 2.795673 6.360871 4.189416 9.978259 4.189416 3.547803 0 7.095605-1.342578 9.826809-4.02057 5.508457-5.432733 5.579065-14.296611 0.146333-19.806091L437.217806 333.369623zM381.121184 277.267884c-5.467525-5.473665-14.332427-5.473665-19.799952 0-5.473665 5.467525-5.473665 14.332427 0 19.799952l14.004969 14.004969c2.731204 2.737344 6.313799 4.108574 9.897418 4.108574s7.166213-1.37123 9.902534-4.108574c5.473665-5.467525 5.473665-14.332427 0-19.799952L381.121184 277.267884z" p-id="868"></path></svg>