<?xml version="1.0" standalone="no"?><!DOCTYPE svg PUBLIC "-//W3C//DTD SVG 1.1//EN" "http://www.w3.org/Graphics/SVG/1.1/DTD/svg11.dtd"><svg t="1519548126912" class="icon" style="" viewBox="0 0 1024 1024" version="1.1" xmlns="http://www.w3.org/2000/svg" p-id="16324" xmlns:xlink="http://www.w3.org/1999/xlink" width="200" height="200"><defs><style type="text/css"></style></defs><path d="M831.554975 672.349434H735.713162v-351.420148c0-17.642795-14.304305-31.9471-31.9471-31.9471H352.345402v-95.841812c0-17.642795-14.304305-31.9471-31.9471-31.947101s-31.9471 14.304305-31.9471 31.947101v95.841812h-95.841812c-17.642795 0-31.9471 14.304305-31.9471 31.9471s14.304305 31.9471 31.9471 31.9471H288.45069v351.420148c0 17.642795 14.304305 31.9471 31.9471 31.9471h351.420148v95.841812c0 17.642795 14.304305 31.9471 31.9471 31.9471s31.9471-14.304305 31.9471-31.9471V736.244146h95.841813c17.642795 0 31.9471-14.304305 31.9471-31.9471s-14.303281-31.947612-31.946076-31.947612z m-479.209573 0v-319.473048h319.473048v319.473048H352.345402z" p-id="16325"></path></svg>